<svg viewBox="0 0 12 12" fill="none" xmlns="http://www.w3.org/2000/svg">
<g id="Group">
<path id="Vector" d="M4.94689 11.5C4.68964 10.6613 4.30166 10.0358 3.7827 9.62391C3.00439 9.00625 1.76775 9.39029 1.311 8.75294C0.854252 8.11559 1.63099 6.94379 1.90346 6.25236C2.1762 5.56094 0.858714 5.31655 1.01254 5.1202C1.11491 4.98921 1.78088 4.61174 3.0099 3.98725C3.35903 1.99592 4.64869 1 6.87941 1C10.2252 1 11.4999 3.83657 11.4999 5.641C11.4999 7.4449 9.95644 9.38845 7.75774 9.80766C7.56113 10.0938 7.84463 10.6582 8.60824 11.5" stroke="#983164" stroke-linecap="round" stroke-linejoin="round"/>
<path id="Vector_2" d="M5.06871 3.75625C4.89703 4.42142 4.94796 4.88867 5.22174 5.15774C5.49527 5.42654 5.96147 5.60267 6.62034 5.68536C6.47072 6.54347 6.65316 6.94589 7.16713 6.89286C7.68111 6.8401 7.99007 6.62642 8.09376 6.25236C8.89701 6.47811 9.33249 6.28911 9.39996 5.68536C9.50102 4.77974 9.01277 4.0576 8.81248 4.0576C8.61246 4.0576 8.09376 4.03319 8.09376 3.75625C8.09376 3.47931 7.48791 3.32312 6.94112 3.32312C6.39433 3.32312 6.72324 2.95431 5.97249 3.1C5.47191 3.19712 5.17056 3.41579 5.06871 3.75625Z" stroke="#983164" stroke-linejoin="round"/>
<path id="Vector_3" d="M7.95616 6.64375C7.6892 6.80939 7.32301 7.08475 7.16866 7.3C6.78305 7.83813 6.47041 8.16573 6.40216 8.5096" stroke="#983164" stroke-linecap="round"/>
</g>
</svg>
