<svg width="6" height="6" viewBox="0 0 6 11" fill="none" xmlns="http://www.w3.org/2000/svg">
  <g clip-path="url(#clip0_30_82)">
    <path d="M1.49999 3.4375C1.49999 2.6791 2.03811 2.0625 2.69999 2.0625H3.29999C3.96186 2.0625 4.49999 2.6791 4.49999 3.4375V3.51484C4.49999 3.9832 4.29186 4.41934 3.94874 4.6707L3.15749 5.25293C2.92517 5.42409 2.73407 5.65934 2.60172 5.93712C2.46937 6.21489 2.40001 6.5263 2.39999 6.84277V6.875C2.39999 7.25527 2.66811 7.5625 2.99999 7.5625C3.33186 7.5625 3.59999 7.25527 3.59999 6.875V6.84492C3.59999 6.66875 3.67874 6.50547 3.80624 6.41094L4.59749 5.82871C5.28374 5.32168 5.69999 4.45156 5.69999 3.51484V3.4375C5.69999 1.91855 4.62561 0.6875 3.29999 0.6875H2.69999C1.37436 0.6875 0.299988 1.91855 0.299988 3.4375C0.299988 3.81777 0.568113 4.125 0.899988 4.125C1.23186 4.125 1.49999 3.81777 1.49999 3.4375ZM2.99999 10.3125C3.1989 10.3125 3.38967 10.222 3.53032 10.0608C3.67097 9.89963 3.74999 9.68105 3.74999 9.45312C3.74999 9.2252 3.67097 9.00662 3.53032 8.84546C3.38967 8.68429 3.1989 8.59375 2.99999 8.59375C2.80108 8.59375 2.61031 8.68429 2.46966 8.84546C2.32901 9.00662 2.24999 9.2252 2.24999 9.45312C2.24999 9.68105 2.32901 9.89963 2.46966 10.0608C2.61031 10.222 2.80108 10.3125 2.99999 10.3125Z" fill="#983164"/>
  </g>
  <defs>
    <clipPath id="clip0_30_82">
      <rect width="6" height="11" fill="white"/>
    </clipPath>
  </defs>
</svg>